:SAMPLES-PER-SECOND 30
:FULLY-SPECIFIED
:DEGREES
585
root  38.358 39.8665 -34.1492 5.63205 52.3649 10.8466
RightUpLeg  -21.1021 -14.7728 -1.11236
RightLeg  32.8306 -6.31601 -4.76596
RightFoot  -1.25084 0.0371747 -0.520955
RightToes  -4.65663e-010 0 -3.6325e-017
Spine  7.12447 -2.11635 -3.17009
Spine1  2.75639 -2.06477 -2.14504
HEad  -12.523 9.66295 -3.08499
LeftShoulder1  8.3214 -11.9317 -47.0374
LeftArm  -8.70594 2.47191 -11.3646
LeftForeArm  19.4159 -17.384 -4.45896
LeftHand  -0.244104 0.0205437 5.32207
RightShoulder  5.86283 9.3862 39.3782
RightArm  13.2897 -12.6089 32.0287
RightForeArm  5.82952 19.2556 5.50954
RightHand  -0.704652 1.29997 -12.3522
LeftUpLeg  5.76921 5.7223 -1.69959
LeftLeg  7.72568 18.09 -3.97775
LeftFoot  -8.37203 0.157291 -4.10623
LeftToes  -7.27628e-011 -1.6005e-012 -1.37987e-011
586
root  39.4201 39.6636 -33.6063 6.30788 50.7392 11.6438
RightUpLeg  -21.3126 -20.9339 1.4778
RightLeg  21.288 -5.8801 -2.26525
RightFoot  -0.922671 0.017614 -0.260631
RightToes  -4.65663e-010 0 -3.6325e-017
Spine  6.96883 -2.45477 -4.9985
Spine1  2.57582 -2.71227 -0.869771
HEad  -12.2614 10.0933 -2.9915
LeftShoulder1  8.23042 -11.833 -46.8174
LeftArm  -9.79841 0.571275 -9.64728
LeftForeArm  19.1963 -19.2466 -4.07454
LeftHand  -0.244104 0.0205437 5.32207
RightShoulder  5.71018 9.19865 38.8723
RightArm  11.2721 -13.2533 31.9324
RightForeArm  5.97271 18.8297 5.60731
RightHand  -0.709224 1.21587 -12.581
LeftUpLeg  7.83288 5.50366 -2.91931
LeftLeg  7.38169 19.6462 -3.9
LeftFoot  -9.62022 0.122531 -4.26879
LeftToes  -7.27628e-011 -1.6005e-012 -1.37987e-011
587
root  40.4746 39.505 -32.9924 6.97203 49.5978 12.3583
RightUpLeg  -19.4528 -19.4431 1.07424
RightLeg  7.75109 -13.124 2.79232
RightFoot  -0.53134 0.0490709 -0.565005
RightToes  -4.65663e-010 0 -3.6325e-017
Spine  6.58193 -2.80096 -6.55336
Spine1  2.48808 -3.41539 0.873378
HEad  -11.7458 10.3455 -3.02532
LeftShoulder1  8.22962 -11.8117 -46.8791
LeftArm  -11.1911 -0.839374 -8.1949
LeftForeArm  19.4031 -20.9089 -3.86932
LeftHand  -0.244104 0.0205437 5.32207
RightShoulder  5.5871 9.03248 38.5033
RightArm  7.26696 -14.0611 31.8286
RightForeArm  7.23 17.0631 6.08742
RightHand  -0.708816 1.11349 -12.7626
LeftUpLeg  10.2431 5.21413 -3.90795
LeftLeg  6.19824 20.7804 -4.29008
LeftFoot  -10.531 0.0933744 -4.36451
LeftToes  -7.27628e-011 -1.6005e-012 -1.37987e-011
588
root  41.5736 39.2227 -32.2709 7.66025 48.8166 13.3925
RightUpLeg  -16.0383 -6.3367 -3.8361
RightLeg  -5.85979 -29.794 10.1527
RightFoot  -1.07691 0.0440024 -0.506006
RightToes  -4.65663e-010 0 -3.6325e-017
Spine  6.30231 -3.13088 -7.75358
Spine1  2.04864 -3.90322 1.83283
HEad  -10.9519 10.2125 -2.93946
LeftShoulder1  8.22635 -11.8351 -46.7869
LeftArm  -12.4485 -2.00713 -7.47565
LeftForeArm  19.6916 -22.1165 -3.84689
LeftHand  -0.244104 0.0205437 5.32207
RightShoulder  5.51625 8.86249 38.5409
RightArm  1.61959 -15.2337 31.5831
RightForeArm  9.43156 14.373 6.59993
RightHand  -0.744903 1.21239 -13.207
LeftUpLeg  12.4119 5.26729 -4.74218
LeftLeg  6.52759 21.0412 -4.41584
LeftFoot  -12.437 0.0194711 -5.45759
LeftToes  -7.27628e-011 -1.6005e-012 -1.37987e-011
589
root  42.7363 38.8498 -31.4493 8.0168 48.0792 14.4742
RightUpLeg  -16.2195 -6.26772 -3.65163
RightLeg  -8.34859 -31.3542 10.2961
RightFoot  -3.01017 -0.106925 1.12348
RightToes  -4.65663e-010 0 -3.6325e-017
Spine  6.04958 -3.39274 -8.23841
Spine1  1.68232 -4.08851 1.78695
HEad  -10.416 9.9035 -2.88451
LeftShoulder1  8.1982 -11.8675 -46.5226
LeftArm  -13.1648 -2.94661 -7.57383
LeftForeArm  19.9504 -23.0881 -3.92774
LeftHand  -0.244104 0.0205437 5.32207
RightShoulder  5.49514 8.7707 38.6955
RightArm  -4.47762 -16.4782 31.5172
RightForeArm  11.7062 11.0193 6.6749
RightHand  -0.804431 1.44626 -13.7783
LeftUpLeg  14.4981 5.59812 -5.39817
LeftLeg  8.30812 20.7803 -4.10303
LeftFoot  -14.2907 -0.0914797 -6.9425
LeftToes  -7.27628e-011 -1.6005e-012 -1.37987e-011
590
root  43.9083 38.6598 -30.5918 7.39544 47.5274 14.281
RightUpLeg  -15.7533 -6.86789 -3.40342
RightLeg  -6.56838 -32.8073 10.2375
RightFoot  -2.71427 0.0281662 -0.507708
RightToes  -4.65663e-010 0 -3.6325e-017
Spine  5.47183 -3.60982 -7.03912
Spine1  2.39341 -4.34646 1.66714
HEad  -10.3698 9.70893 -3.28239
LeftShoulder1  8.25645 -11.9435 -46.625
LeftArm  -12.9225 -3.21612 -8.02737
LeftForeArm  20.1089 -24.4421 -4.16742
LeftHand  -0.244104 0.0205437 5.32207
RightShoulder  5.49415 8.77166 38.6822
RightArm  -8.68539 -17.5705 31.6012
RightForeArm  12.8962 7.66922 6.09017
RightHand  -0.845554 1.6176 -14.1306
LeftUpLeg  16.9692 6.08041 -5.02002
LeftLeg  9.23835 20.2328 -3.98553
LeftFoot  -14.3148 -0.121722 -7.98306
LeftToes  -7.27628e-011 -1.6005e-012 -1.37987e-011
591
root  45.1485 38.5928 -29.6207 5.97679 47.521 12.8057
RightUpLeg  -15.6325 -8.37798 -2.35996
RightLeg  -1.56806 -33.7435 9.16381
RightFoot  -1.21591 0.588241 -6.70502
RightToes  -4.65663e-010 0 -3.6325e-017
Spine  4.11436 -4.02541 -4.45159
Spine1  3.81649 -4.81907 1.70914
HEad  -10.258 9.61452 -4.20094
LeftShoulder1  8.4214 -12.0295 -47.3087
LeftArm  -11.5904 -2.30284 -8.73566
LeftForeArm  20.4944 -26.4718 -4.5907
LeftHand  -0.244104 0.0205437 5.32207
RightShoulder  5.49423 8.7593 38.7202
RightArm  -10.1061 -18.7803 31.2465
RightForeArm  13.4065 5.11047 5.40258
RightHand  -0.84706 1.63936 -14.1122
LeftUpLeg  19.5072 9.18176 -2.25849
LeftLeg  10.6207 16.1843 -3.5716
LeftFoot  -13.692 -0.133373 -10.3102
LeftToes  -7.27628e-011 -1.6005e-012 -1.37987e-011
592
root  46.4199 38.5486 -28.5195 3.80334 47.2841 10.2538
RightUpLeg  -16.7406 -10.5069 0.247355
RightLeg  6.18837 -32.4136 5.2042
RightFoot  -0.93312 1.28031 -14.108
RightToes  -4.65663e-010 0 -3.6325e-017
Spine  2.52253 -4.32602 -0.872527
Spine1  4.76583 -5.01988 1.59593
HEad  -9.54024 9.55698 -5.23546
LeftShoulder1  8.52401 -11.9741 -48.0684
LeftArm  -9.83217 0.00411061 -10.278
LeftForeArm  21.9544 -28.8484 -5.04586
LeftHand  -0.244104 0.0205437 5.32207
RightShoulder  5.49572 8.69109 38.98
RightArm  -10.2024 -20.424 30.3348
RightForeArm  14.6202 3.74776 5.07742
RightHand  -0.809581 1.5032 -13.7533
LeftUpLeg  21.6412 17.9188 3.94975
LeftLeg  14.348 5.82393 -1.94187
LeftFoot  -12.3685 -0.0508361 -15.3398
LeftToes  -7.27628e-011 -1.6005e-012 -1.37987e-011
593
root  47.5714 38.5338 -27.3809 1.38145 45.7806 7.38083
RightUpLeg  -17.5392 -13.273 4.06679
RightLeg  12.5078 -27.6489 0.961221
RightFoot  -2.08225 1.5215 -18.7688
RightToes  -4.65663e-010 0 -3.6325e-017
Spine  1.72596 -4.05483 2.7305
Spine1  4.73436 -4.6023 1.49092
HEad  -8.58059 9.6752 -5.85707
LeftShoulder1  8.43954 -11.7225 -48.378
LeftArm  -8.70908 3.55069 -12.9082
LeftForeArm  24.7647 -31.1429 -5.42828
LeftHand  -0.244104 0.0205437 5.32207
RightShoulder  5.49259 8.64907 39.1032
RightArm  -10.177 -22.2432 29.707
RightForeArm  16.114 3.62764 4.87503
RightHand  -0.749907 1.2878 -13.1516
LeftUpLeg  21.2009 24.0922 9.17738
LeftLeg  21.7231 -0.970538 0.456471
LeftFoot  -7.46629 0.741175 -20.1303
LeftToes  -7.27628e-011 -1.6005e-012 -1.37987e-011
594
root  48.5585 38.4998 -26.2701 -0.581311 43.7225 5.14792
RightUpLeg  -17.3051 -16.5046 7.3523
RightLeg  16.8716 -21.771 -1.7542
RightFoot  -4.40276 1.16251 -19.3632
RightToes  -4.65663e-010 0 -3.6325e-017
Spine  1.93425 -3.65329 5.10244
Spine1  4.26784 -4.05161 1.97961
HEad  -8.17373 9.99222 -5.73211
LeftShoulder1  8.27757 -11.4485 -48.3168
LeftArm  -8.46218 7.77304 -15.924
LeftForeArm  27.7822 -33.1917 -5.75795
LeftHand  -0.244104 0.0205437 5.32207
RightShoulder  5.46429 8.65685 38.8532
RightArm  -10.8483 -23.593 29.9809
RightForeArm  16.8504 4.52632 4.68684
RightHand  -0.703514 1.18428 -12.5401
LeftUpLeg  16.0737 20.0221 9.3302
LeftLeg  32.7993 2.47474 2.05863
LeftFoot  2.69389 2.36512 -19.6498
LeftToes  -7.27628e-011 -1.6005e-012 -1.37987e-011
595
root  49.3733 38.3569 -25.2467 -2.25521 42.4408 3.2847
RightUpLeg  -16.4219 -19.0084 9.29048
RightLeg  20.3224 -18.167 -3.00515
RightFoot  -7.26844 0.607038 -18.26
RightToes  -4.65663e-010 0 -3.6325e-017
Spine  2.58168 -3.72327 6.50078
Spine1  4.14176 -3.94804 3.0858
HEad  -8.37755 10.0308 -4.86516
LeftShoulder1  8.20908 -11.3472 -48.2428
LeftArm  -8.30026 11.8146 -18.4399
LeftForeArm  29.5976 -34.5932 -6.00658
LeftHand  -0.244104 0.0205437 5.32207
RightShoulder  5.41355 8.59433 38.6744
RightArm  -11.8113 -24.0347 30.7712
RightForeArm  15.9124 6.24275 4.70594
RightHand  -0.698237 1.28893 -12.2596
LeftUpLeg  9.03739 15.8344 9.32504
LeftLeg  44.863 2.58659 3.09168
LeftFoot  13.5854 3.16833 -14.6287
LeftToes  -7.27628e-011 -1.6005e-012 -1.37987e-011
